<mxfile host="app.diagrams.net" modified="2024-02-10T14:24:13.462Z" agent="Mozilla/5.0 (Windows NT 10.0; Win64; x64) AppleWebKit/537.36 (KHTML, like Gecko) Chrome/121.0.0.0 Safari/537.36" etag="vo2grY11ECxdl-CktjSJ" version="23.1.2" type="github">
  <diagram id="C5RBs43oDa-KdzZeNtuy" name="Page-1">
    <mxGraphModel dx="1050" dy="565" grid="1" gridSize="10" guides="1" tooltips="1" connect="1" arrows="1" fold="1" page="1" pageScale="1" pageWidth="827" pageHeight="1169" math="0" shadow="0">
      <root>
        <mxCell id="WIyWlLk6GJQsqaUBKTNV-0" />
        <mxCell id="WIyWlLk6GJQsqaUBKTNV-1" parent="WIyWlLk6GJQsqaUBKTNV-0" />
        <mxCell id="9cuQumWch8jRT-vDF75O-0" value="&lt;font style=&quot;font-size: 18px;&quot;&gt;Объект разработки&lt;/font&gt;" style="rounded=0;whiteSpace=wrap;html=1;" vertex="1" parent="WIyWlLk6GJQsqaUBKTNV-1">
          <mxGeometry x="280" y="270" width="200" height="180" as="geometry" />
        </mxCell>
        <mxCell id="9cuQumWch8jRT-vDF75O-1" value="&lt;font style=&quot;font-size: 14px;&quot;&gt;PLC&lt;/font&gt;" style="rounded=1;whiteSpace=wrap;html=1;" vertex="1" parent="WIyWlLk6GJQsqaUBKTNV-1">
          <mxGeometry x="10" y="220" width="120" height="60" as="geometry" />
        </mxCell>
        <mxCell id="9cuQumWch8jRT-vDF75O-2" value="&lt;font style=&quot;font-size: 14px;&quot;&gt;PLC&lt;/font&gt;" style="rounded=1;whiteSpace=wrap;html=1;" vertex="1" parent="WIyWlLk6GJQsqaUBKTNV-1">
          <mxGeometry x="10" y="120" width="120" height="60" as="geometry" />
        </mxCell>
        <mxCell id="9cuQumWch8jRT-vDF75O-3" value="" style="endArrow=classic;html=1;rounded=0;entryX=0;entryY=0.5;entryDx=0;entryDy=0;endFill=1;" edge="1" parent="WIyWlLk6GJQsqaUBKTNV-1" target="9cuQumWch8jRT-vDF75O-0">
          <mxGeometry width="50" height="50" relative="1" as="geometry">
            <mxPoint x="160" y="360" as="sourcePoint" />
            <mxPoint x="400" y="240" as="targetPoint" />
          </mxGeometry>
        </mxCell>
        <mxCell id="9cuQumWch8jRT-vDF75O-4" value="" style="endArrow=none;html=1;rounded=0;" edge="1" parent="WIyWlLk6GJQsqaUBKTNV-1">
          <mxGeometry width="50" height="50" relative="1" as="geometry">
            <mxPoint x="160" y="360" as="sourcePoint" />
            <mxPoint x="160" y="150" as="targetPoint" />
          </mxGeometry>
        </mxCell>
        <mxCell id="9cuQumWch8jRT-vDF75O-5" value="" style="endArrow=classic;html=1;rounded=0;entryX=1;entryY=0.5;entryDx=0;entryDy=0;endFill=1;" edge="1" parent="WIyWlLk6GJQsqaUBKTNV-1" target="9cuQumWch8jRT-vDF75O-2">
          <mxGeometry width="50" height="50" relative="1" as="geometry">
            <mxPoint x="160" y="150" as="sourcePoint" />
            <mxPoint x="400" y="240" as="targetPoint" />
          </mxGeometry>
        </mxCell>
        <mxCell id="9cuQumWch8jRT-vDF75O-6" value="" style="endArrow=classic;html=1;rounded=0;exitX=1;exitY=0.5;exitDx=0;exitDy=0;endFill=1;startArrow=classic;startFill=1;" edge="1" parent="WIyWlLk6GJQsqaUBKTNV-1" source="9cuQumWch8jRT-vDF75O-1">
          <mxGeometry width="50" height="50" relative="1" as="geometry">
            <mxPoint x="350" y="290" as="sourcePoint" />
            <mxPoint x="160" y="250" as="targetPoint" />
          </mxGeometry>
        </mxCell>
        <mxCell id="9cuQumWch8jRT-vDF75O-7" value="Интерфейс: CAN.&lt;br&gt;Протокол: проприетарный,&lt;br&gt;еще в разработке (?)." style="text;html=1;align=center;verticalAlign=middle;resizable=0;points=[];autosize=1;strokeColor=none;fillColor=none;" vertex="1" parent="WIyWlLk6GJQsqaUBKTNV-1">
          <mxGeometry x="120" y="353" width="170" height="60" as="geometry" />
        </mxCell>
        <mxCell id="9cuQumWch8jRT-vDF75O-8" value="&lt;font style=&quot;font-size: 17px;&quot;&gt;Счетчик&lt;/font&gt;" style="rounded=1;whiteSpace=wrap;html=1;" vertex="1" parent="WIyWlLk6GJQsqaUBKTNV-1">
          <mxGeometry x="320" y="560" width="120" height="60" as="geometry" />
        </mxCell>
        <mxCell id="9cuQumWch8jRT-vDF75O-10" value="" style="endArrow=classic;html=1;rounded=0;exitX=0.5;exitY=0;exitDx=0;exitDy=0;entryX=0.5;entryY=1;entryDx=0;entryDy=0;startArrow=classic;startFill=1;endFill=1;" edge="1" parent="WIyWlLk6GJQsqaUBKTNV-1" source="9cuQumWch8jRT-vDF75O-8" target="9cuQumWch8jRT-vDF75O-0">
          <mxGeometry width="50" height="50" relative="1" as="geometry">
            <mxPoint x="350" y="390" as="sourcePoint" />
            <mxPoint x="400" y="340" as="targetPoint" />
          </mxGeometry>
        </mxCell>
        <mxCell id="9cuQumWch8jRT-vDF75O-11" value="Интерфейс: RS485.&lt;br&gt;Протокол: Modbus RTU Master.&lt;br&gt;Желательно модель счетчика (?).&lt;br&gt;Возможно нужен второй RS485 Slave (?)." style="text;html=1;align=center;verticalAlign=middle;resizable=0;points=[];autosize=1;strokeColor=none;fillColor=none;" vertex="1" parent="WIyWlLk6GJQsqaUBKTNV-1">
          <mxGeometry x="130" y="468" width="250" height="70" as="geometry" />
        </mxCell>
        <mxCell id="9cuQumWch8jRT-vDF75O-12" value="" style="shape=flexArrow;endArrow=classic;html=1;rounded=0;startArrow=block;" edge="1" parent="WIyWlLk6GJQsqaUBKTNV-1">
          <mxGeometry width="50" height="50" relative="1" as="geometry">
            <mxPoint x="480" y="365" as="sourcePoint" />
            <mxPoint x="720" y="365" as="targetPoint" />
          </mxGeometry>
        </mxCell>
        <mxCell id="9cuQumWch8jRT-vDF75O-13" value="Интерфейс: Ethernet.&lt;br&gt;Протоколы для управления &lt;br&gt;и мониторинга: МЭК, Modbus TCP(?) &lt;br&gt;- на каждый свой порт, &lt;br&gt;подключение инициирует устройство,&lt;br&gt;&amp;nbsp;далее работает как сервер.&lt;br&gt;Отдельный порт WEB сервера&lt;br&gt;для конфигурации.&lt;br&gt;Возможно синхронизация времени по МЭК (?).&lt;br&gt;Нужна карта МЭК, Modbus (?)." style="text;html=1;align=center;verticalAlign=middle;resizable=0;points=[];autosize=1;strokeColor=none;fillColor=none;" vertex="1" parent="WIyWlLk6GJQsqaUBKTNV-1">
          <mxGeometry x="460" y="378" width="290" height="160" as="geometry" />
        </mxCell>
        <mxCell id="9cuQumWch8jRT-vDF75O-14" value="" style="shape=flexArrow;endArrow=classic;html=1;rounded=0;exitX=0.5;exitY=0;exitDx=0;exitDy=0;startArrow=block;dashed=1;" edge="1" parent="WIyWlLk6GJQsqaUBKTNV-1" source="9cuQumWch8jRT-vDF75O-0">
          <mxGeometry width="50" height="50" relative="1" as="geometry">
            <mxPoint x="350" y="340" as="sourcePoint" />
            <mxPoint x="520" y="140" as="targetPoint" />
          </mxGeometry>
        </mxCell>
        <mxCell id="9cuQumWch8jRT-vDF75O-16" value="Интерфейс: беспроводной GPRS, 2G, 3G.&lt;br&gt;Протокол SNTP для синхронизации времени (?).&lt;br&gt;Протоколы для управления&lt;br style=&quot;border-color: var(--border-color);&quot;&gt;и мониторинга: МЭК, Modbus TCP(?)&lt;br style=&quot;border-color: var(--border-color);&quot;&gt;- на каждый свой порт,&lt;br style=&quot;border-color: var(--border-color);&quot;&gt;подключение инициирует устройство,&lt;br style=&quot;border-color: var(--border-color);&quot;&gt;&amp;nbsp;далее работает как сервер.&lt;br&gt;Возможно синхронизация времени по МЭК (?).&lt;br&gt;Нужна карта МЭК, Modbus(?)." style="text;html=1;align=center;verticalAlign=middle;resizable=0;points=[];autosize=1;strokeColor=none;fillColor=none;" vertex="1" parent="WIyWlLk6GJQsqaUBKTNV-1">
          <mxGeometry x="470" y="170" width="300" height="140" as="geometry" />
        </mxCell>
      </root>
    </mxGraphModel>
  </diagram>
</mxfile>
